<svg id="Layer_1" data-name="Layer 1" xmlns="http://www.w3.org/2000/svg" viewBox="0 0 933 745.76"><defs><style>.cls-1,.cls-2{fill:#36f;}.cls-2{stroke:#36f;stroke-miterlimit:10;}</style></defs><path class="cls-1" d="M73.66,110.6s28.56,4.06,28.56,27.09V805.78c0,8.61-3,11-8.68,17.48-5.86,6.67-7.75,13.34-19.88,13.34-21.66,0-40-14.38-38.95-29.15.62-8.8,1.06-8.77-.05-669.65C34.66,137.8,37.53,112.45,73.66,110.6Z" transform="translate(-34.66 -110.6)"/><path class="cls-1" d="M34.66,817.36s4.05-29.57,20.09-29.57H923.83c15.61,0,24,3,30.49,8.68,6.67,5.86,13.34,8.75,13.34,20.89,0,21.65-14.38,40-29.15,38.95-21.74-1.55-21.77-1-876.65.05C61.86,856.36,36.51,853.49,34.66,817.36Z" transform="translate(-34.66 -110.6)"/><path class="cls-2" d="M216.19,499.26s35.57,4.06,35.57,27.09V684.44a35.55,35.55,0,0,1-8.68,23.48c-5.86,6.67-14.75,13.34-26.89,13.34-21.65,0-40-14.38-38.95-29.15s-.05-165.65-.05-165.65S180.06,501.11,216.19,499.26Z" transform="translate(-34.66 -110.6)"/><path class="cls-1" d="M366.63,417.48s35.56,4.06,35.56,27.09V602.66a35.5,35.5,0,0,1-8.68,23.48c-5.85,6.67-14.75,13.34-26.88,13.34-21.66,0-40-14.38-38.95-29.15s-.05-165.65-.05-165.65S330.5,419.33,366.63,417.48Z" transform="translate(-34.66 -110.6)"/><path class="cls-1" d="M536.05,489.43s35.57,4.05,35.57,27.09V674.6a35.6,35.6,0,0,1-8.68,23.49c-5.86,6.67-14.75,13.34-26.89,13.34-21.65,0-40-14.38-38.95-29.15s-.05-165.65-.05-165.65S499.92,491.28,536.05,489.43Z" transform="translate(-34.66 -110.6)"/><path class="cls-1" d="M693.28,417.48s35.57,4.06,35.57,27.09V602.66a35.55,35.55,0,0,1-8.68,23.48c-5.86,6.67-14.75,13.34-26.89,13.34-21.65,0-40-14.38-38.95-29.15s-.05-165.65-.05-165.65S657.15,419.33,693.28,417.48Z" transform="translate(-34.66 -110.6)"/><path class="cls-1" d="M852.74,499.26s35.56,4.06,35.56,27.09V684.44a35.5,35.5,0,0,1-8.68,23.48c-5.85,6.67-14.75,13.34-26.88,13.34-21.66,0-40-14.38-39-29.15s0-165.65,0-165.65S816.61,501.11,852.74,499.26Z" transform="translate(-34.66 -110.6)"/><path class="cls-1" d="M375.21,234.92s12.5,23.64-6,37.37L215.28,385.52c-6.91,5.13-15,8.35-22.7,8.81-8,.48-17.25-.85-22.62-8.09-9.6-12.92-6.18-32.45,6.15-40.62s160-117.77,160-117.77S357.72,214.45,375.21,234.92Z" transform="translate(-34.66 -110.6)"/><path class="cls-1" d="M672.32,259.37s9.58,25-10.42,36.39L524.61,374.13c-7.48,4.27-15.88,6.5-23.59,6-7.95-.47-17-2.91-21.5-10.74-8-14-2.25-33,11-39.6s143.84-82.15,143.84-82.15S657.4,237,672.32,259.37Z" transform="translate(-34.66 -110.6)"/><path class="cls-1" d="M930,218.93s16.26,21.23.31,37.85l-109.49,114c-6,6.22-13.39,10.73-20.92,12.48-7.76,1.79-17.15,2-23.65-4.22-11.61-11.15-11.49-31-.7-41.08s114.7-119.52,114.7-119.52S909.36,201.66,930,218.93Z" transform="translate(-34.66 -110.6)"/><path class="cls-1" d="M522.2,369.5s-18.65,19.17-37.4,5.8L342.09,278.51c-7-5-12.56-11.69-15.38-18.88-2.9-7.42-4.5-16.68.74-24,9.34-13.11,29-15.86,40.55-6.65S516.89,330.11,516.89,330.11,536.29,346.56,522.2,369.5Z" transform="translate(-34.66 -110.6)"/><path class="cls-1" d="M816.3,372.19s-16.94,20.7-36.77,9L643.4,300.81c-7.42-4.38-13.52-10.57-16.95-17.49-3.53-7.15-5.91-16.23-1.33-24,8.19-13.86,27.51-18.29,39.83-10.11s142.66,84.18,142.66,84.18S828.36,348.12,816.3,372.19Z" transform="translate(-34.66 -110.6)"/></svg>